<svg xmlns="http://www.w3.org/2000/svg" xmlns:xlink="http://www.w3.org/1999/xlink" id="Layer_1" x="0px" y="0px" viewBox="0 0 752 745" style="enable-background:new 0 0 752 745;" xml:space="preserve">
<style type="text/css">
	.st0{fill:#008AD7;}
	.st1{fill:#008AD7;}
	.st2{clip-path:url(#SVGID_00000005954507985972935490000006688092146686365568_);fill:#008AD7;}
	.st3{clip-path:url(#SVGID_00000005954507985972935490000006688092146686365568_);fill:#008AD7;}
	.st4{clip-path:url(#SVGID_00000005954507985972935490000006688092146686365568_);fill:#008AD7;}
	.st5{clip-path:url(#SVGID_00000005954507985972935490000006688092146686365568_);fill:#008AD7;}
	.st6{clip-path:url(#SVGID_00000119819537703016674140000016747755988695142824_);}
	.st7{fill:#008AD7;}
	.st8{fill:#FFFFFF;}
</style>
<g>
	<g>
		<path class="st0" d="M21.1,371.1c0-197.2,159.8-357,357-357s357,159.8,357,357"></path>
		<path class="st1" d="M735.1,371.1c0,197.2-159.8,357-357,357c-158.7,0-293.2-103.6-339.7-246.8c-11.3-34.7-17.3-71.8-17.3-110.2"></path>
		<g>
			<defs>
				<path id="SVGID_1_" d="M378.1,14.1c-197.2,0-357,159.8-357,357c0,38.5,6.1,75.5,17.3,110.2c46.4,143.2,181,246.8,339.7,246.8      c197.2,0,357-159.8,357-357S575.3,14.1,378.1,14.1z"></path>
			</defs>
			<clipPath id="SVGID_00000094610920220657583510000015366843975415108225_">
				<use xlink:href="#SVGID_1_" style="overflow:visible;"></use>
			</clipPath>
			
				<rect x="-34.6" y="364.8" style="clip-path:url(#SVGID_00000094610920220657583510000015366843975415108225_);fill:#008AD7;" width="797.3" height="136.2"></rect>
			
				<rect x="-34.6" y="229.1" style="clip-path:url(#SVGID_00000094610920220657583510000015366843975415108225_);fill:#008AD7;" width="797.3" height="136.2"></rect>
			
				<rect x="-34.6" y="93.3" style="clip-path:url(#SVGID_00000094610920220657583510000015366843975415108225_);fill:#008AD7;" width="797.3" height="136.2"></rect>
			
				<rect x="-34.6" y="-42.4" style="clip-path:url(#SVGID_00000094610920220657583510000015366843975415108225_);fill:#008AD7;" width="797.3" height="136.2"></rect>
		</g>
		<g>
			<defs>
				<path id="SVGID_00000114039573079636763100000015925122863613551540_" d="M735.9,369.2c0,196.6-159.4,356.1-356.1,356.1      S23.8,565.8,23.8,369.2S183.2,13.1,379.9,13.1c126.6,0,236.5,66.8,299.5,166.4C715.2,234.4,734.5,299.6,735.9,369.2z"></path>
			</defs>
			<clipPath id="SVGID_00000061437192063532448140000011076235839115346075_">
				<use xlink:href="#SVGID_00000114039573079636763100000015925122863613551540_" style="overflow:visible;"></use>
			</clipPath>
		</g>
	</g>
</g>
<g>
	<defs>
		<path id="SVGID_00000159433305643801191150000004654234379816611238_" d="M732.7,374.1c0,196.5-159.3,355.7-355.7,355.7    S23.2,569.9,21.1,374.2c-2-195.6,158.4-361,354.8-361S732.7,177.7,732.7,374.1z"></path>
	</defs>
	<clipPath id="SVGID_00000122701101198464685680000017816484279727941299_">
		<use xlink:href="#SVGID_00000159433305643801191150000004654234379816611238_" style="overflow:visible;"></use>
	</clipPath>
	<g style="clip-path:url(#SVGID_00000122701101198464685680000017816484279727941299_);">
		<path class="st7" d="M-370.8,421.5c1.7,22.7,4.4,32.3,13.1,34.9c2.6,0,31.5,0,39.3,0c0-13.1,5.2-25.3,13.1-34.9H-370.8z"></path>
		<path class="st7" d="M-262.4,412.7c-25.3,0-46.3,21-46.3,46.3c0,25.3,21,46.3,46.3,46.3c25.3,0,46.3-21,46.3-46.3    C-216.1,433.7-237.1,412.7-262.4,412.7z M-262.4,481.7c-12.2,0-21.8-9.6-21.8-21.8c0-12.2,9.6-21.8,21.8-21.8    c12.2,0,21.8,9.6,21.8,21.8C-240.6,472.1-250.2,481.7-262.4,481.7z"></path>
	</g>
</g>
<g>
	<path class="st8" d="M204.4,385.4c2.7,0,5.6-1.2,7.7-3.2l25.6-25.5l-0.6-1.7c-0.1-0.1-5.5-16.6,7.6-24.5c12.1-7.2,34.4,8,41.9,14.5   l0.2,0.2l1.7,1.4l34-34l-1.1-1.8l-0.1-0.1c-30.1-50.2-9.7-79.4,40.6-129.7l1.9-1.9l-13.5-13.6l-1.8,0.9   c-66.1,35.6-133,102.2-133.7,102.8l-1.4,1.4l0.9,1.7c0.1,0.2,9.3,18.8,0.5,27.6c-8,8-15.8,0.9-16.6,0l-1.9-1.9l-34.2,33.4   c-2.7,2.7-3.9,7.9-2.5,11.6c7.3,19,22.5,34.2,41.5,41.5C202.2,385.3,203.4,385.4,204.4,385.4z"></path>
	<path class="st8" d="M411.2,398.9l-38.8-38.1l-40.2-39.4l-34.7,34.7l38.6,39.5l39.5,40.3l137.1,140.1l1,0.7c0.2,0.1,2.5,0.9,6,0.9   c5.4,0,13.9-1.8,22.9-10.9c15-15,10.2-28.4,10-28.9L411.2,398.9z"></path>
	<path class="st8" d="M591,228.7l-1.2-4.6l-40.2,40.2c-4.1,4.1-11.9,5.4-17.1,0.1l-25.3-25.3c-2.9-2.9-3.5-6.1-3.5-8.3   c-0.1-3.3,1.3-6.5,3.6-8.8l40.1-40.1l-4.6-1.2c-23.2-6.3-48.3,0.4-65.5,17.5c-13.1,13.1-21.1,32.2-21.3,51   c-0.1,20.3-1.3,33.7-16.1,46.8l-58.3,55.8l38.4,37.6l55.5-58c13.2-14.9,26.3-15.8,46.7-16c18.7-0.1,37.8-8.1,51-21.3   C590.5,277.2,597.3,252.1,591,228.7z"></path>
	<path class="st8" d="M201.6,524.5c-6.3,6.1-9.8,14.3-9.9,23c0,8.8,3.3,16.9,9.5,23c6.2,6.2,14.3,9.5,22.9,9.5h0.4   c8.7-0.1,16.9-3.6,22.9-9.9l119.4-124.7l-39.9-40.7L201.6,524.5z M237.6,554.7c-5.7,5.6-14.9,5.6-20.5,0c-5.6-5.7-5.6-14.9,0-20.5   c5.6-5.6,14.8-5.6,20.5,0C243.2,539.8,243.2,549,237.6,554.7z"></path>
</g>
</svg>